<mxfile host="app.diagrams.net" modified="2024-07-02T17:39:27.115Z" agent="Mozilla/5.0 (Windows NT 10.0; Win64; x64) AppleWebKit/537.36 (KHTML, like Gecko) Chrome/126.0.0.0 Safari/537.36" etag="3j-ToHTdvlzLGs2XCGXQ" version="24.5.4" type="device" pages="4">
  <diagram name="Page-1" id="sa3JaRb4zAh7xSFOsgYo">
    <mxGraphModel dx="1176" dy="738" grid="1" gridSize="10" guides="1" tooltips="1" connect="1" arrows="1" fold="1" page="1" pageScale="1" pageWidth="850" pageHeight="1100" math="0" shadow="0">
      <root>
        <mxCell id="0" />
        <mxCell id="1" parent="0" />
        <mxCell id="HXvRRggS9acc66V-IcfA-1" value="1" style="ellipse;whiteSpace=wrap;html=1;aspect=fixed;fontSize=40;" vertex="1" parent="1">
          <mxGeometry x="40" y="40" width="80" height="80" as="geometry" />
        </mxCell>
        <mxCell id="HXvRRggS9acc66V-IcfA-2" value="2" style="ellipse;whiteSpace=wrap;html=1;aspect=fixed;fontSize=40;" vertex="1" parent="1">
          <mxGeometry x="40" y="200" width="80" height="80" as="geometry" />
        </mxCell>
        <mxCell id="HXvRRggS9acc66V-IcfA-3" value="3" style="ellipse;whiteSpace=wrap;html=1;aspect=fixed;fontSize=40;" vertex="1" parent="1">
          <mxGeometry x="40" y="360" width="80" height="80" as="geometry" />
        </mxCell>
        <mxCell id="HXvRRggS9acc66V-IcfA-4" value="4" style="ellipse;whiteSpace=wrap;html=1;aspect=fixed;fontSize=40;" vertex="1" parent="1">
          <mxGeometry x="40" y="520" width="80" height="80" as="geometry" />
        </mxCell>
        <mxCell id="HXvRRggS9acc66V-IcfA-9" value="" style="endArrow=none;html=1;rounded=0;" edge="1" parent="1" source="HXvRRggS9acc66V-IcfA-1" target="HXvRRggS9acc66V-IcfA-2">
          <mxGeometry width="50" height="50" relative="1" as="geometry">
            <mxPoint x="100" y="110" as="sourcePoint" />
            <mxPoint x="150" y="60" as="targetPoint" />
          </mxGeometry>
        </mxCell>
        <mxCell id="HXvRRggS9acc66V-IcfA-10" value="" style="endArrow=none;html=1;rounded=0;" edge="1" parent="1" source="HXvRRggS9acc66V-IcfA-2" target="HXvRRggS9acc66V-IcfA-3">
          <mxGeometry width="50" height="50" relative="1" as="geometry">
            <mxPoint x="100" y="370" as="sourcePoint" />
            <mxPoint x="150" y="320" as="targetPoint" />
          </mxGeometry>
        </mxCell>
        <mxCell id="HXvRRggS9acc66V-IcfA-11" value="" style="endArrow=none;html=1;rounded=0;" edge="1" parent="1" source="HXvRRggS9acc66V-IcfA-3" target="HXvRRggS9acc66V-IcfA-4">
          <mxGeometry width="50" height="50" relative="1" as="geometry">
            <mxPoint x="90" y="290" as="sourcePoint" />
            <mxPoint x="90" y="370" as="targetPoint" />
          </mxGeometry>
        </mxCell>
      </root>
    </mxGraphModel>
  </diagram>
  <diagram id="IMgUAWG3aXK0eMKmpE-n" name="Page-2">
    <mxGraphModel dx="2016" dy="1266" grid="1" gridSize="10" guides="1" tooltips="1" connect="1" arrows="1" fold="1" page="1" pageScale="1" pageWidth="850" pageHeight="1100" math="0" shadow="0">
      <root>
        <mxCell id="0" />
        <mxCell id="1" parent="0" />
        <mxCell id="MLjIj6maTVyB1e2y3DTa-1" value="1" style="ellipse;whiteSpace=wrap;html=1;aspect=fixed;fontSize=40;" vertex="1" parent="1">
          <mxGeometry x="40" y="40" width="80" height="80" as="geometry" />
        </mxCell>
        <mxCell id="KY0gkpV71I2yjKAK91oI-1" value="2" style="ellipse;whiteSpace=wrap;html=1;aspect=fixed;fontSize=40;" vertex="1" parent="1">
          <mxGeometry x="40" y="200" width="80" height="80" as="geometry" />
        </mxCell>
        <mxCell id="KY0gkpV71I2yjKAK91oI-2" value="3" style="ellipse;whiteSpace=wrap;html=1;aspect=fixed;fontSize=40;" vertex="1" parent="1">
          <mxGeometry x="40" y="360" width="80" height="80" as="geometry" />
        </mxCell>
        <mxCell id="KY0gkpV71I2yjKAK91oI-3" value="4" style="ellipse;whiteSpace=wrap;html=1;aspect=fixed;fontSize=40;" vertex="1" parent="1">
          <mxGeometry x="200" y="520" width="80" height="80" as="geometry" />
        </mxCell>
        <mxCell id="KY0gkpV71I2yjKAK91oI-4" value="5" style="ellipse;whiteSpace=wrap;html=1;aspect=fixed;fontSize=40;" vertex="1" parent="1">
          <mxGeometry x="200" y="680" width="80" height="80" as="geometry" />
        </mxCell>
        <mxCell id="KY0gkpV71I2yjKAK91oI-5" value="6" style="ellipse;whiteSpace=wrap;html=1;aspect=fixed;fontSize=40;" vertex="1" parent="1">
          <mxGeometry x="40" y="840" width="80" height="80" as="geometry" />
        </mxCell>
        <mxCell id="KY0gkpV71I2yjKAK91oI-6" value="7" style="ellipse;whiteSpace=wrap;html=1;aspect=fixed;fontSize=40;" vertex="1" parent="1">
          <mxGeometry x="40" y="1000" width="80" height="80" as="geometry" />
        </mxCell>
        <mxCell id="KY0gkpV71I2yjKAK91oI-7" value="8" style="ellipse;whiteSpace=wrap;html=1;aspect=fixed;fontSize=40;" vertex="1" parent="1">
          <mxGeometry x="40" y="1160" width="80" height="80" as="geometry" />
        </mxCell>
        <mxCell id="KY0gkpV71I2yjKAK91oI-8" value="" style="endArrow=none;html=1;rounded=0;" edge="1" parent="1" source="MLjIj6maTVyB1e2y3DTa-1" target="KY0gkpV71I2yjKAK91oI-1">
          <mxGeometry width="50" height="50" relative="1" as="geometry">
            <mxPoint x="450" y="620" as="sourcePoint" />
            <mxPoint x="500" y="570" as="targetPoint" />
          </mxGeometry>
        </mxCell>
        <mxCell id="KY0gkpV71I2yjKAK91oI-9" value="" style="endArrow=none;html=1;rounded=0;" edge="1" parent="1" source="KY0gkpV71I2yjKAK91oI-1" target="KY0gkpV71I2yjKAK91oI-2">
          <mxGeometry width="50" height="50" relative="1" as="geometry">
            <mxPoint x="450" y="620" as="sourcePoint" />
            <mxPoint x="500" y="570" as="targetPoint" />
          </mxGeometry>
        </mxCell>
        <mxCell id="KY0gkpV71I2yjKAK91oI-10" value="" style="endArrow=none;html=1;rounded=0;" edge="1" parent="1" source="KY0gkpV71I2yjKAK91oI-2" target="KY0gkpV71I2yjKAK91oI-5">
          <mxGeometry width="50" height="50" relative="1" as="geometry">
            <mxPoint x="450" y="620" as="sourcePoint" />
            <mxPoint x="500" y="570" as="targetPoint" />
          </mxGeometry>
        </mxCell>
        <mxCell id="KY0gkpV71I2yjKAK91oI-15" value="" style="endArrow=none;html=1;rounded=0;" edge="1" parent="1" source="KY0gkpV71I2yjKAK91oI-2" target="KY0gkpV71I2yjKAK91oI-3">
          <mxGeometry width="50" height="50" relative="1" as="geometry">
            <mxPoint x="450" y="620" as="sourcePoint" />
            <mxPoint x="500" y="570" as="targetPoint" />
          </mxGeometry>
        </mxCell>
        <mxCell id="KY0gkpV71I2yjKAK91oI-16" value="" style="endArrow=none;html=1;rounded=0;" edge="1" parent="1" source="KY0gkpV71I2yjKAK91oI-4" target="KY0gkpV71I2yjKAK91oI-3">
          <mxGeometry width="50" height="50" relative="1" as="geometry">
            <mxPoint x="450" y="620" as="sourcePoint" />
            <mxPoint x="500" y="570" as="targetPoint" />
          </mxGeometry>
        </mxCell>
        <mxCell id="KY0gkpV71I2yjKAK91oI-17" value="" style="endArrow=none;html=1;rounded=0;" edge="1" parent="1" source="KY0gkpV71I2yjKAK91oI-5" target="KY0gkpV71I2yjKAK91oI-4">
          <mxGeometry width="50" height="50" relative="1" as="geometry">
            <mxPoint x="450" y="620" as="sourcePoint" />
            <mxPoint x="500" y="570" as="targetPoint" />
          </mxGeometry>
        </mxCell>
        <mxCell id="KY0gkpV71I2yjKAK91oI-18" value="" style="endArrow=none;html=1;rounded=0;" edge="1" parent="1" source="KY0gkpV71I2yjKAK91oI-6" target="KY0gkpV71I2yjKAK91oI-5">
          <mxGeometry width="50" height="50" relative="1" as="geometry">
            <mxPoint x="450" y="780" as="sourcePoint" />
            <mxPoint x="500" y="730" as="targetPoint" />
          </mxGeometry>
        </mxCell>
        <mxCell id="KY0gkpV71I2yjKAK91oI-19" value="" style="endArrow=none;html=1;rounded=0;" edge="1" parent="1" source="KY0gkpV71I2yjKAK91oI-7" target="KY0gkpV71I2yjKAK91oI-6">
          <mxGeometry width="50" height="50" relative="1" as="geometry">
            <mxPoint x="450" y="780" as="sourcePoint" />
            <mxPoint x="500" y="730" as="targetPoint" />
          </mxGeometry>
        </mxCell>
      </root>
    </mxGraphModel>
  </diagram>
  <diagram id="yc3hmaEuZ1GHO9pwasU7" name="Page-3">
    <mxGraphModel dx="1411" dy="886" grid="1" gridSize="10" guides="1" tooltips="1" connect="1" arrows="1" fold="1" page="1" pageScale="1" pageWidth="850" pageHeight="1100" math="0" shadow="0">
      <root>
        <mxCell id="0" />
        <mxCell id="1" parent="0" />
        <mxCell id="I6FZUxH0gLIb9PCsAX3y-1" value="1" style="ellipse;whiteSpace=wrap;html=1;aspect=fixed;fontSize=40;" vertex="1" parent="1">
          <mxGeometry x="40" y="40" width="80" height="80" as="geometry" />
        </mxCell>
        <mxCell id="I6FZUxH0gLIb9PCsAX3y-2" value="2" style="ellipse;whiteSpace=wrap;html=1;aspect=fixed;fontSize=40;" vertex="1" parent="1">
          <mxGeometry x="40" y="200" width="80" height="80" as="geometry" />
        </mxCell>
        <mxCell id="I6FZUxH0gLIb9PCsAX3y-3" value="3" style="ellipse;whiteSpace=wrap;html=1;aspect=fixed;fontSize=40;" vertex="1" parent="1">
          <mxGeometry x="40" y="360" width="80" height="80" as="geometry" />
        </mxCell>
        <mxCell id="I6FZUxH0gLIb9PCsAX3y-4" value="" style="endArrow=none;html=1;rounded=0;" edge="1" parent="1" source="I6FZUxH0gLIb9PCsAX3y-1" target="I6FZUxH0gLIb9PCsAX3y-2">
          <mxGeometry width="50" height="50" relative="1" as="geometry">
            <mxPoint x="400" y="370" as="sourcePoint" />
            <mxPoint x="450" y="320" as="targetPoint" />
          </mxGeometry>
        </mxCell>
        <mxCell id="I6FZUxH0gLIb9PCsAX3y-5" value="" style="endArrow=none;html=1;rounded=0;" edge="1" parent="1" source="I6FZUxH0gLIb9PCsAX3y-2" target="I6FZUxH0gLIb9PCsAX3y-3">
          <mxGeometry width="50" height="50" relative="1" as="geometry">
            <mxPoint x="400" y="370" as="sourcePoint" />
            <mxPoint x="450" y="320" as="targetPoint" />
          </mxGeometry>
        </mxCell>
      </root>
    </mxGraphModel>
  </diagram>
  <diagram id="txnD_bcRTjglbHg60AXs" name="Page-4">
    <mxGraphModel dx="2261" dy="886" grid="1" gridSize="10" guides="1" tooltips="1" connect="1" arrows="1" fold="1" page="1" pageScale="1" pageWidth="850" pageHeight="1100" math="0" shadow="0">
      <root>
        <mxCell id="0" />
        <mxCell id="1" parent="0" />
        <mxCell id="TRLBBBkGy7uJ08zU4hUP-1" value="1" style="ellipse;whiteSpace=wrap;html=1;aspect=fixed;fontSize=40;" vertex="1" parent="1">
          <mxGeometry x="40" y="40" width="80" height="80" as="geometry" />
        </mxCell>
        <mxCell id="TRLBBBkGy7uJ08zU4hUP-2" value="3" style="ellipse;whiteSpace=wrap;html=1;aspect=fixed;fontSize=40;" vertex="1" parent="1">
          <mxGeometry x="200" y="200" width="80" height="80" as="geometry" />
        </mxCell>
        <mxCell id="TRLBBBkGy7uJ08zU4hUP-3" value="2" style="ellipse;whiteSpace=wrap;html=1;aspect=fixed;fontSize=40;" vertex="1" parent="1">
          <mxGeometry x="-120" y="200" width="80" height="80" as="geometry" />
        </mxCell>
        <mxCell id="TRLBBBkGy7uJ08zU4hUP-4" value="4" style="ellipse;whiteSpace=wrap;html=1;aspect=fixed;fontSize=40;" vertex="1" parent="1">
          <mxGeometry x="40" y="360" width="80" height="80" as="geometry" />
        </mxCell>
        <mxCell id="TRLBBBkGy7uJ08zU4hUP-5" value="5" style="ellipse;whiteSpace=wrap;html=1;aspect=fixed;fontSize=40;" vertex="1" parent="1">
          <mxGeometry x="40" y="520" width="80" height="80" as="geometry" />
        </mxCell>
        <mxCell id="TRLBBBkGy7uJ08zU4hUP-6" value="6" style="ellipse;whiteSpace=wrap;html=1;aspect=fixed;fontSize=40;" vertex="1" parent="1">
          <mxGeometry x="40" y="680" width="80" height="80" as="geometry" />
        </mxCell>
        <mxCell id="TRLBBBkGy7uJ08zU4hUP-7" value="7" style="ellipse;whiteSpace=wrap;html=1;aspect=fixed;fontSize=40;" vertex="1" parent="1">
          <mxGeometry x="40" y="840" width="80" height="80" as="geometry" />
        </mxCell>
        <mxCell id="SlpSUDQMisJ6MlJYs9GC-1" value="" style="endArrow=none;html=1;rounded=0;" edge="1" parent="1" source="TRLBBBkGy7uJ08zU4hUP-1" target="TRLBBBkGy7uJ08zU4hUP-3">
          <mxGeometry width="50" height="50" relative="1" as="geometry">
            <mxPoint x="400" y="480" as="sourcePoint" />
            <mxPoint x="450" y="430" as="targetPoint" />
          </mxGeometry>
        </mxCell>
        <mxCell id="SlpSUDQMisJ6MlJYs9GC-2" value="" style="endArrow=none;html=1;rounded=0;" edge="1" parent="1" source="TRLBBBkGy7uJ08zU4hUP-1" target="TRLBBBkGy7uJ08zU4hUP-2">
          <mxGeometry width="50" height="50" relative="1" as="geometry">
            <mxPoint x="400" y="480" as="sourcePoint" />
            <mxPoint x="450" y="430" as="targetPoint" />
          </mxGeometry>
        </mxCell>
        <mxCell id="SlpSUDQMisJ6MlJYs9GC-3" value="" style="endArrow=none;html=1;rounded=0;" edge="1" parent="1" source="TRLBBBkGy7uJ08zU4hUP-4" target="TRLBBBkGy7uJ08zU4hUP-2">
          <mxGeometry width="50" height="50" relative="1" as="geometry">
            <mxPoint x="400" y="480" as="sourcePoint" />
            <mxPoint x="450" y="430" as="targetPoint" />
          </mxGeometry>
        </mxCell>
        <mxCell id="SlpSUDQMisJ6MlJYs9GC-4" value="" style="endArrow=none;html=1;rounded=0;" edge="1" parent="1" source="TRLBBBkGy7uJ08zU4hUP-3" target="TRLBBBkGy7uJ08zU4hUP-4">
          <mxGeometry width="50" height="50" relative="1" as="geometry">
            <mxPoint x="400" y="480" as="sourcePoint" />
            <mxPoint x="450" y="430" as="targetPoint" />
          </mxGeometry>
        </mxCell>
        <mxCell id="SlpSUDQMisJ6MlJYs9GC-5" value="" style="endArrow=none;html=1;rounded=0;" edge="1" parent="1" source="TRLBBBkGy7uJ08zU4hUP-4" target="TRLBBBkGy7uJ08zU4hUP-5">
          <mxGeometry width="50" height="50" relative="1" as="geometry">
            <mxPoint x="400" y="480" as="sourcePoint" />
            <mxPoint x="450" y="430" as="targetPoint" />
          </mxGeometry>
        </mxCell>
        <mxCell id="SlpSUDQMisJ6MlJYs9GC-6" value="" style="endArrow=none;html=1;rounded=0;" edge="1" parent="1" source="TRLBBBkGy7uJ08zU4hUP-5" target="TRLBBBkGy7uJ08zU4hUP-6">
          <mxGeometry width="50" height="50" relative="1" as="geometry">
            <mxPoint x="400" y="480" as="sourcePoint" />
            <mxPoint x="450" y="430" as="targetPoint" />
          </mxGeometry>
        </mxCell>
        <mxCell id="SlpSUDQMisJ6MlJYs9GC-7" value="" style="endArrow=none;html=1;rounded=0;" edge="1" parent="1" source="TRLBBBkGy7uJ08zU4hUP-6" target="TRLBBBkGy7uJ08zU4hUP-7">
          <mxGeometry width="50" height="50" relative="1" as="geometry">
            <mxPoint x="400" y="700" as="sourcePoint" />
            <mxPoint x="450" y="650" as="targetPoint" />
          </mxGeometry>
        </mxCell>
      </root>
    </mxGraphModel>
  </diagram>
</mxfile>
